<svg width="212" height="130" viewBox="0 0 212 130" fill="none" xmlns="http://www.w3.org/2000/svg">
<path d="M76.5591 2.97966e-06C88.3679 -0.00395605 99.8396 3.93743 109.152 11.1983C118.465 18.4591 125.085 28.6232 127.961 40.0764C133.839 36.9718 140.381 35.3352 147.028 35.3063C153.675 35.2775 160.231 36.8571 166.135 39.9106C172.04 42.9641 177.118 47.4006 180.936 52.8418C184.755 58.2829 187.2 64.567 188.064 71.158C195.268 72.5275 201.7 76.5364 206.103 82.3997C210.506 88.263 212.562 95.5586 211.868 102.858C211.174 110.157 207.781 116.935 202.352 121.864C196.924 126.793 189.851 129.518 182.519 129.507H41.2391C31.8741 129.514 22.7858 126.331 15.4717 120.482C8.15764 114.633 3.05402 106.468 1.0017 97.3302C-1.05062 88.1928 0.0707924 78.6289 4.18119 70.2141C8.29159 61.7992 15.1457 55.0356 23.6144 51.0374C24.1173 37.3317 29.9155 24.3551 39.7896 14.8367C49.6637 5.31835 62.8442 -7.63149e-05 76.5591 2.97966e-06Z" fill="#F2F2F2"/>
</svg>
