<svg width="288" height="288" viewBox="0 0 288 288" fill="none" xmlns="http://www.w3.org/2000/svg">
<path d="M255.417 0.75C263.859 0.75 271.956 4.10386 277.926 10.0738C283.896 16.0437 287.25 24.1406 287.25 32.5833V255.417C287.25 263.859 283.896 271.956 277.926 277.926C271.956 283.896 263.859 287.25 255.417 287.25H32.5833C24.1406 287.25 16.0437 283.896 10.0738 277.926C4.10386 271.956 0.75 263.859 0.75 255.417V32.5833C0.75 24.1406 4.10386 16.0437 10.0738 10.0738C16.0437 4.10386 24.1406 0.75 32.5833 0.75H255.417ZM247.458 247.458V163.1C247.458 149.338 241.992 136.14 232.261 126.409C222.53 116.678 209.332 111.212 195.57 111.212C182.041 111.212 166.283 119.488 158.643 131.903V114.236H114.236V247.458H158.643V168.989C158.643 156.733 168.512 146.706 180.768 146.706C186.677 146.706 192.345 149.054 196.524 153.232C200.703 157.411 203.051 163.079 203.051 168.989V247.458H247.458ZM62.5067 89.2467C69.5986 89.2467 76.4 86.4294 81.4147 81.4147C86.4294 76.4 89.2467 69.5986 89.2467 62.5067C89.2467 47.7042 77.3092 35.6075 62.5067 35.6075C55.3726 35.6075 48.5307 38.4415 43.4861 43.4861C38.4415 48.5307 35.6075 55.3726 35.6075 62.5067C35.6075 77.3092 47.7042 89.2467 62.5067 89.2467ZM84.6308 247.458V114.236H40.5417V247.458H84.6308Z" fill="black"/>
</svg>
