<svg width="132" height="132" viewBox="0 0 132 132" fill="none" xmlns="http://www.w3.org/2000/svg">
<path fill-rule="evenodd" clip-rule="evenodd" d="M65.8719 0C50.1684 0.00886831 35.0017 5.71626 23.1882 16.0623C11.2115 26.564 3.30579 40.9402 0.852404 56.6789C-1.65522 72.4839 1.40961 88.6691 9.52211 102.463C17.5181 116.092 30.1277 126.408 45.0699 131.546C48.3876 132.172 49.566 130.078 49.566 128.294C49.566 126.682 49.5002 121.369 49.4738 115.734C31.1733 119.816 27.3157 107.769 27.3157 107.769C26.131 103.714 23.5405 100.213 20.0087 97.8946C14.038 93.7012 20.4695 93.8066 20.4695 93.8066C22.5563 94.0962 24.5509 94.8796 26.2954 96.0843C28.0464 97.2889 29.5013 98.8886 30.5545 100.758C31.4432 102.424 32.6479 103.892 34.0961 105.07C36.253 106.854 38.9048 107.934 41.6943 108.165C44.4838 108.395 47.277 107.766 49.6976 106.36C49.9939 102.937 51.475 99.7378 53.8778 97.3416C39.2703 95.6366 23.8992 89.8502 23.8992 63.9662C23.7974 57.2919 26.2217 50.8256 30.6862 45.8632C28.6718 40.0381 28.8971 33.6719 31.3181 28.0037C31.3181 28.0037 36.8412 26.1934 49.4146 34.9158C60.1868 31.8928 71.5833 31.8928 82.3555 34.9158C94.9025 26.1934 100.393 28.0037 100.393 28.0037C102.828 33.6519 103.065 40.0373 101.058 45.8632C105.517 50.8276 107.937 57.2936 107.831 63.9662C107.831 89.8963 92.4339 95.5971 77.787 97.2626C79.3678 98.9131 80.5829 100.878 81.3531 103.03C82.1233 105.182 82.4312 107.472 82.2568 109.75C82.2568 118.782 82.1778 126.056 82.1778 128.275C82.1778 130.065 83.3627 132.172 86.7002 131.514C101.616 126.354 114.196 116.032 122.169 102.41C130.267 88.628 133.322 72.4594 130.812 56.6723C128.357 40.9481 120.459 26.585 108.496 16.0886C96.7037 5.74796 81.5627 0.0320832 65.8785 0H65.8719Z" fill="black"/>
</svg>
