<svg width="156" height="156" viewBox="0 0 156 156" fill="none" xmlns="http://www.w3.org/2000/svg">
<path fill-rule="evenodd" clip-rule="evenodd" d="M145.186 14.3773C145.935 13.5204 146.509 12.5242 146.873 11.4457C147.238 10.3671 147.386 9.2274 147.31 8.09151C147.234 6.95563 146.935 5.84584 146.43 4.82552C145.925 3.8052 145.224 2.89432 144.367 2.1449C143.51 1.39548 142.514 0.822193 141.435 0.457767C140.357 0.0933404 139.217 -0.0550861 138.081 0.0209616C136.945 0.0970093 135.836 0.396043 134.815 0.900987C133.795 1.40593 132.884 2.1069 132.135 2.96387L87.85 53.5749L50.2644 3.46651C49.4572 2.39019 48.4104 1.5166 47.207 0.914922C46.0037 0.313242 44.6768 0 43.3314 0H8.66628C7.05685 0 5.47921 0.448173 4.11015 1.2943C2.74108 2.14043 1.63468 3.35108 0.914926 4.7906C0.195167 6.23012 -0.109514 7.84163 0.0350219 9.44455C0.179558 11.0475 0.767601 12.5785 1.73326 13.866L57.5181 88.24L10.8068 141.624C10.0574 142.481 9.48414 143.477 9.11971 144.556C8.75528 145.634 8.60686 146.774 8.68291 147.91C8.75895 149.046 9.05799 150.156 9.56293 151.176C10.0679 152.196 10.7688 153.107 11.6258 153.857C12.4828 154.606 13.479 155.179 14.5575 155.544C15.636 155.908 16.7758 156.057 17.9116 155.981C19.0475 155.905 20.1573 155.606 21.1776 155.101C22.198 154.596 23.1088 153.895 23.8583 153.038L68.1429 102.418L105.729 152.526C106.536 153.603 107.583 154.476 108.786 155.078C109.989 155.68 111.316 155.993 112.662 155.993H147.327C148.936 155.993 150.514 155.545 151.883 154.699C153.252 153.853 154.358 152.642 155.078 151.202C155.798 149.763 156.102 148.151 155.958 146.548C155.813 144.945 155.225 143.414 154.26 142.127L98.4749 67.7529L145.186 14.3773ZM116.995 138.66L25.9988 17.3325H38.9982L129.994 138.66H116.995Z" fill="black"/>
</svg>
